<?xml version="1.0" standalone="no"?>
<!DOCTYPE svg PUBLIC "-//W3C//DTD SVG 20010904//EN"
 "http://www.w3.org/TR/2001/REC-SVG-20010904/DTD/svg10.dtd">
<svg version="1.0" xmlns="http://www.w3.org/2000/svg"
 width="300.000000pt" height="300.000000pt" viewBox="0 0 300.000000 300.000000"
 preserveAspectRatio="xMidYMid meet">
<metadata>
Created by potrace 1.11, written by Peter Selinger 2001-2013
</metadata>
<g transform="translate(0.000000,300.000000) scale(0.100000,-0.100000)"
fill="#000000" stroke="none">
<path d="M1325 2990 c-27 -4 -66 -11 -85 -14 -19 -4 -44 -8 -55 -10 -61 -10
-211 -58 -256 -82 -16 -8 -29 -12 -29 -10 0 3 -26 -9 -58 -27 -32 -18 -79 -43
-105 -57 -129 -68 -311 -229 -420 -370 -69 -90 -68 -90 -86 -121 -8 -13 -26
-44 -41 -69 -15 -25 -28 -48 -29 -52 -1 -4 -17 -42 -36 -83 -19 -42 -35 -82
-35 -89 0 -6 -5 -17 -12 -24 -7 -7 -9 -12 -6 -12 4 0 -1 -24 -11 -52 -10 -29
-18 -56 -19 -61 0 -4 -3 -20 -6 -35 -15 -66 -17 -80 -24 -127 -4 -27 -7 -124
-6 -215 1 -127 6 -188 22 -265 33 -156 89 -317 139 -397 13 -21 21 -38 18 -38
-5 0 85 -142 95 -150 4 -3 9 -10 11 -16 12 -33 184 -214 264 -279 42 -34 172
-125 179 -125 2 0 35 -17 74 -39 38 -21 83 -43 98 -49 16 -6 54 -20 84 -31 30
-12 64 -23 75 -26 11 -3 55 -13 99 -24 43 -11 104 -23 135 -28 73 -9 320 -10
393 -1 60 8 192 35 218 45 8 3 20 7 25 8 6 0 19 5 30 9 11 4 49 19 85 33 67
26 171 74 180 83 3 3 22 14 42 25 38 19 148 99 202 145 63 53 179 177 222 235
16 22 31 42 34 45 8 8 103 170 106 180 0 3 16 37 34 75 81 171 122 359 125
575 3 196 -16 327 -72 500 -20 63 -20 64 -22 73 -4 28 -148 290 -180 329 -6 7
-32 40 -58 73 -51 64 -157 171 -218 220 -53 42 -144 105 -152 105 -3 0 -14 6
-22 14 -60 51 -321 156 -454 182 -12 2 -47 9 -77 15 -68 13 -347 19 -415 9z"/>
</g>
</svg>
